<?xml version="1.0" encoding="UTF-8"?>
<svg version="1.1" xmlns="http://www.w3.org/2000/svg" width="512" height="512">
<path d="M0 0 C14.23951588 14.3536603 21.72941212 33.4670312 21.96191406 53.47363281 C21.8297322 67.05726301 18.1539512 79.15643769 12.46191406 91.47363281 C13.19667969 91.58578125 13.93144531 91.69792969 14.68847656 91.81347656 C22.53060186 93.68012329 28.95779609 100.02747955 33.46191406 106.47363281 C36.54748136 112.16645758 38.58805114 117.5766779 38.58496189 124.08880997 C38.58695294 125.01639059 38.58894399 125.94397122 38.59099537 126.89966035 C38.58808253 127.91521933 38.58516969 128.93077832 38.58216858 129.97711182 C38.58345022 131.5993251 38.58345022 131.5993251 38.58475775 133.25431037 C38.58640925 136.89026004 38.58089651 140.52616393 38.57543945 144.16210938 C38.57515748 146.76365152 38.5753155 149.36519374 38.57588196 151.96673584 C38.57640646 157.57392097 38.57326734 163.18109447 38.56764412 168.78827667 C38.55951916 176.89533307 38.55691288 185.00238384 38.55565613 193.10944387 C38.55346718 206.2624189 38.54681133 219.41538772 38.53735352 232.56835938 C38.52817535 245.34570281 38.52109649 258.12304456 38.5168457 270.90039062 C38.51645162 272.08166453 38.51645162 272.08166453 38.51604957 273.28680256 C38.51474454 277.23751482 38.51348083 281.1882271 38.51223767 285.13893938 C38.50186994 317.91717504 38.48425588 350.6954031 38.46191406 383.47363281 C39.13738281 383.45042969 39.81285156 383.42722656 40.50878906 383.40332031 C41.40082031 383.38527344 42.29285156 383.36722656 43.21191406 383.34863281 C44.09363281 383.32542969 44.97535156 383.30222656 45.88378906 383.27832031 C48.60814427 383.48471086 50.16197996 384.03336725 52.46191406 385.47363281 C56.44748804 390.74647292 54.29927432 399.27458154 53.46191406 405.47363281 C50.65603647 420.54520386 43.29391104 432.75748607 32.46191406 443.47363281 C31.8728125 444.09625 31.28371094 444.71886719 30.67675781 445.36035156 C15.62767114 460.07868908 -5.43232548 462.62771098 -25.40785217 462.61407471 C-26.92611832 462.61666122 -28.44438379 462.61967518 -29.96264833 462.62307811 C-34.1227985 462.63111776 -38.28293139 462.63293598 -42.44308841 462.63367558 C-46.93476055 462.63553143 -51.42642383 462.64308144 -55.91809082 462.64981079 C-65.73442566 462.66337307 -75.5507564 462.66941555 -85.36709905 462.67382145 C-91.50079576 462.67658744 -97.63449091 462.68082544 -103.76818657 462.68532562 C-120.76306719 462.69751555 -137.75794656 462.7078154 -154.75283146 462.71120071 C-156.38332269 462.71153006 -156.38332269 462.71153006 -158.04675313 462.71186607 C-159.13629225 462.71208434 -160.22583137 462.71230262 -161.34838682 462.71252751 C-163.55606973 462.71297097 -165.76375264 462.71341754 -167.97143555 462.71386719 C-169.06651373 462.71408862 -170.16159191 462.71431005 -171.28985428 462.71453819 C-189.02661306 462.71848464 -206.76333072 462.73593526 -224.50007362 462.75922671 C-242.72637096 462.7829671 -260.95264769 462.79540379 -279.17896074 462.79656863 C-289.40578384 462.79748388 -299.63255335 462.80319835 -309.85936165 462.82138824 C-318.56903539 462.83682553 -327.27863898 462.84188834 -335.98832382 462.83365014 C-340.42764971 462.82975647 -344.86683448 462.8306102 -349.30614281 462.84470749 C-353.37947139 462.85752366 -357.45255392 462.85618195 -361.52588253 462.84411678 C-362.99023676 462.84217304 -364.45460889 462.8451761 -365.91893805 462.85396114 C-386.94680284 462.97200838 -406.84410342 457.76592992 -422.79199219 443.30957031 C-436.16567927 429.24775168 -443.99589799 410.97515839 -443.76074219 391.52441406 C-443.43983405 388.56868123 -442.44013417 386.7279122 -440.53808594 384.47363281 C-437.52318037 383.46866429 -435.49626902 383.37027979 -432.35058594 383.41113281 C-431.44953125 383.42015625 -430.54847656 383.42917969 -429.62011719 383.43847656 C-428.58951172 383.45587891 -428.58951172 383.45587891 -427.53808594 383.47363281 C-427.54036426 382.63880026 -427.54036426 382.63880026 -427.54268861 381.7871024 C-427.6322647 348.77710614 -427.70086435 315.76714043 -427.74234726 282.75704981 C-427.74734989 278.79058834 -427.75252719 274.82412712 -427.7578125 270.85766602 C-427.75886174 270.06803852 -427.75991098 269.27841102 -427.76099202 268.46485541 C-427.7783817 255.69115874 -427.80991144 242.91753431 -427.84669712 230.14388045 C-427.88414659 217.03003793 -427.90633025 203.91623317 -427.91443992 190.80233938 C-427.9199194 182.71494458 -427.93720525 174.62775402 -427.96975181 166.54042212 C-427.99346056 160.33164283 -427.99589568 154.1230182 -427.99051666 147.91419983 C-427.99161523 145.37257952 -427.99954677 142.83095134 -428.01490784 140.28937721 C-428.03489263 136.81158947 -428.0299933 133.33466624 -428.019104 129.8568573 C-428.03075537 128.85779726 -428.04240674 127.85873721 -428.05441117 126.82940263 C-427.96580968 116.31628235 -424.62267459 107.69975018 -417.82714844 99.70800781 C-413.25624417 95.24630604 -407.84816608 91.76169963 -401.53808594 90.47363281 C-401.85261719 89.94898437 -402.16714844 89.42433594 -402.49121094 88.88378906 C-411.65035859 72.30352479 -413.43294148 51.49421014 -408.51342773 33.28125 C-402.76521197 14.44636631 -391.14237278 -1.33555089 -374.15136719 -11.56542969 C-354.83474102 -21.73207504 -334.59564902 -24.11792349 -313.53808594 -18.52636719 C-301.00388594 -14.38743932 -290.91155487 -7.73025034 -281.53808594 1.47363281 C-280.83683594 2.15039062 -280.13558594 2.82714844 -279.41308594 3.52441406 C-265.635595 17.81317908 -260.12070906 37.44935533 -260.32324219 56.91503906 C-261.01589263 68.38784908 -264.38009864 77.66286585 -268.53808594 88.47363281 C-220.02808594 88.80363281 -171.51808594 89.13363281 -121.53808594 89.47363281 C-123.51808594 84.52363281 -125.49808594 79.57363281 -127.53808594 74.47363281 C-133.3116073 54.2162486 -129.51246898 33.37182602 -119.67089844 15.13769531 C-109.7169822 -2.43281685 -92.55120612 -14.52250831 -73.34667969 -20.17089844 C-46.7659962 -26.7804065 -19.68118397 -18.73628821 0 0 Z M-100.28027344 16.40332031 C-109.98360139 28.51991117 -115.20540608 43.96193527 -113.53808594 59.47363281 C-110.53609486 76.50187599 -103.26862337 90.96332585 -89.27636719 101.62207031 C-84.59582561 104.78694436 -79.71912404 107.23826557 -74.53808594 109.47363281 C-73.78527344 109.81523437 -73.03246094 110.15683594 -72.25683594 110.50878906 C-59.49938835 115.3377525 -42.89470013 113.57192736 -30.53808594 108.47363281 C-15.37098459 101.32466957 -3.62365585 87.97253141 2.46191406 72.47363281 C7.49191712 55.73744081 5.56364002 40.38647346 -2.16308594 24.91113281 C-10.44024432 10.60112019 -23.18507942 0.84291077 -38.91699219 -3.87011719 C-62.42626382 -9.75619414 -84.24807774 -1.35431349 -100.28027344 16.40332031 Z M-380.53808594 15.47363281 C-390.57329732 27.20359526 -395.09061057 42.09907608 -394.41308594 57.41113281 C-392.71183429 74.98428902 -385.05268405 89.13996191 -371.53808594 100.47363281 C-358.50444349 109.74889688 -343.65415597 114.00065817 -327.75683594 111.99707031 C-311.28252073 108.738021 -297.52458161 101.34174085 -287.53808594 87.47363281 C-278.49769504 72.57416301 -275.25903273 57.94324666 -278.19042969 40.61816406 C-282.52880328 23.84187819 -292.1638064 11.74904564 -306.53808594 2.47363281 C-332.09335258 -10.5563982 -360.95316075 -5.67171731 -380.53808594 15.47363281 Z M-407.53808594 114.47363281 C-410.83807794 119.18790711 -411.66388448 123.44804173 -411.66113377 129.13377094 C-411.66312481 130.04592564 -411.66511586 130.95808034 -411.66716725 131.89787608 C-411.6642544 132.89106749 -411.66134156 133.88425889 -411.65834045 134.907547 C-411.65919488 135.96945918 -411.6600493 137.03137137 -411.66092962 138.12546271 C-411.66257875 141.68920902 -411.65707226 145.25290841 -411.65161133 148.81665039 C-411.65132931 151.36907958 -411.65148748 153.92150885 -411.65205383 156.47393799 C-411.65228167 161.97197378 -411.64944238 167.46999443 -411.64381599 172.96802711 C-411.6356865 180.91724208 -411.63308428 188.86645131 -411.631828 196.81566998 C-411.62963977 209.71297269 -411.62298586 222.61026908 -411.61352539 235.50756836 C-411.60434538 248.03556283 -411.59727889 260.56355558 -411.59301758 273.09155273 C-411.59274958 273.87174603 -411.59248158 274.65193933 -411.59220546 275.45577484 C-411.59012602 281.55746377 -411.58816911 287.65915274 -411.5862509 293.76084173 C-411.57681844 323.66511123 -411.55669984 353.56936489 -411.53808594 383.47363281 C-372.92808594 383.47363281 -334.31808594 383.47363281 -294.53808594 383.47363281 C-294.86808594 381.82363281 -295.19808594 380.17363281 -295.53808594 378.47363281 C-295.6709528 376.93544331 -295.75625936 375.39222201 -295.78808594 373.84863281 C-295.81386719 373.09324219 -295.83964844 372.33785156 -295.86621094 371.55957031 C-295.43538343 368.8207383 -294.7384448 368.14701497 -292.53808594 366.47363281 C-289.52118006 364.86461634 -286.44397136 363.4293436 -283.35058594 361.97363281 C-279.96561837 360.24075253 -279.96561837 360.24075253 -277.53808594 357.47363281 C-277.40623502 354.89733231 -277.40623502 354.89733231 -278.53808594 352.47363281 C-280.6113904 350.89189529 -280.6113904 350.89189529 -283.22558594 349.84863281 C-284.57716797 349.22988281 -284.57716797 349.22988281 -285.95605469 348.59863281 C-287.23416016 348.04175781 -287.23416016 348.04175781 -288.53808594 347.47363281 C-294.33118939 344.78397764 -294.33118939 344.78397764 -296.53808594 341.47363281 C-297.65301044 325.49945596 -288.90004545 306.89994505 -279.53808594 294.47363281 C-276.34322839 292.87620404 -273.0149409 293.09364866 -269.53808594 293.47363281 C-267.2047526 294.47363281 -264.87141927 295.47363281 -262.53808594 296.47363281 C-259.77369755 296.77087888 -257.33308363 296.66639127 -254.53808594 296.47363281 C-252.99659174 294.93213862 -253.33162279 293.48919467 -253.28808594 291.34863281 C-253.31694934 286.78100008 -254.71178673 283.65890183 -256.53808594 279.47363281 C-257.30269559 276.56000664 -257.47535139 274.35972459 -256.53808594 271.47363281 C-249.01260357 262.06677986 -233.68298128 257.94098843 -222.53808594 254.47363281 C-221.85681641 254.25368652 -221.17554688 254.03374023 -220.47363281 253.80712891 C-215.4766226 252.34783585 -211.60465798 252.08259931 -206.53808594 253.47363281 C-204.62011719 256.23925781 -204.62011719 256.23925781 -203.35058594 259.72363281 C-201.4553571 264.78521074 -199.58901476 267.85162587 -195.53808594 271.47363281 C-191.54107802 269.80821285 -190.04415271 267.93951443 -188.35058594 264.09863281 C-187.33282391 261.59493821 -186.39494542 259.07789138 -185.47558594 256.53613281 C-184.53808594 254.47363281 -184.53808594 254.47363281 -181.53808594 252.47363281 C-166.19362238 251.25482614 -146.08199923 261.07742432 -134.53808594 270.47363281 C-133.04301719 273.46377031 -133.0739889 276.23090354 -133.53808594 279.47363281 C-134.17936959 281.17923176 -134.87035699 282.86667836 -135.60058594 284.53613281 C-137.34583702 288.58782878 -138.05171512 291.14897801 -136.53808594 295.47363281 C-134.77869431 297.68423218 -134.77869431 297.68423218 -132.58496094 297.55566406 C-128.75909724 297.10671067 -125.89895361 296.65406665 -122.41308594 294.91113281 C-118.62529311 293.0172364 -116.71583149 292.59410743 -112.53808594 293.47363281 C-103.43438664 301.19859814 -98.97867882 315.29311033 -95.60058594 326.41113281 C-95.38901855 327.09626953 -95.17745117 327.78140625 -94.95947266 328.48730469 C-93.59493425 333.27654416 -93.11023407 337.49259194 -93.53808594 342.47363281 C-95.45172855 345.48167889 -98.1285031 346.24805105 -101.41308594 347.41113281 C-105.38849325 348.91644055 -108.39265477 350.53789706 -111.53808594 353.47363281 C-111.27148194 356.67288075 -110.82361146 358.16968629 -108.60058594 360.53613281 C-105.11545477 362.74101171 -101.64306443 364.03957707 -97.74511719 365.34863281 C-95.53808594 366.47363281 -95.53808594 366.47363281 -93.53808594 370.47363281 C-94.19808594 374.76363281 -94.85808594 379.05363281 -95.53808594 383.47363281 C-56.59808594 383.47363281 -17.65808594 383.47363281 22.46191406 383.47363281 C22.54932338 337.66016451 22.54932338 337.66016451 22.60839844 291.84667969 C22.61427189 285.66821265 22.62033329 279.48974584 22.62670898 273.3112793 C22.62750023 272.53692887 22.62829148 271.76257845 22.6291067 270.96476287 C22.64214806 258.46995565 22.6657959 245.97518993 22.69337245 233.48040731 C22.72144531 220.65359568 22.7380943 207.82680574 22.74417955 194.99996465 C22.74829209 187.08764593 22.76127262 179.17544446 22.78566346 171.26316183 C22.80342349 165.19194265 22.80527494 159.12082395 22.80123711 153.04957581 C22.80206205 150.5619478 22.80802427 148.07431533 22.81953049 145.58671379 C22.83448281 142.18716837 22.83085724 138.78812233 22.82267761 135.38856506 C22.83141614 134.40702503 22.84015466 133.42548499 22.84915799 132.41420132 C22.8040898 125.47177953 22.06588858 118.676468 17.55957031 113.13378906 C16.88796875 112.6065625 16.21636719 112.07933594 15.52441406 111.53613281 C14.85539062 110.99085938 14.18636719 110.44558594 13.49707031 109.88378906 C9.66473988 107.22837393 6.44073013 105.78014029 1.64550781 105.90332031 C-2.06859777 106.87337293 -4.23238889 109.55481706 -6.92871094 112.17675781 C-21.70107768 125.17997883 -41.25860879 129.48520213 -60.43652344 128.62597656 C-75.29577353 127.54881903 -92.15679207 121.58220025 -102.28189087 110.34010315 C-108.76678932 104.55207997 -116.26351939 105.34315001 -124.44970703 105.42260742 C-126.15733009 105.41011387 -127.86493123 105.39423981 -129.57249451 105.3752594 C-134.19076382 105.33466152 -138.80762734 105.34449593 -143.42597532 105.36609721 C-147.2901624 105.37932716 -151.1540986 105.36715603 -155.01827586 105.35489184 C-164.13937864 105.32611426 -173.25980753 105.33761028 -182.38085938 105.37573242 C-191.77049269 105.41440182 -201.15850901 105.39155044 -210.54802835 105.33720392 C-218.62827536 105.29225938 -226.70802822 105.28255439 -234.78837836 105.30147368 C-239.60618985 105.31260252 -244.42313184 105.31139816 -249.24085617 105.27754021 C-253.77412317 105.24747883 -258.30519251 105.26181275 -262.83828926 105.30931664 C-264.49458763 105.31955448 -266.15106387 105.31472887 -267.80725288 105.29311752 C-277.60618793 105.17612957 -283.96331134 106.13243498 -291.34371376 113.30226994 C-292.06785658 114.01881968 -292.7919994 114.73536943 -293.53808594 115.47363281 C-296.01226236 117.14077451 -298.53404358 118.50512376 -301.22558594 119.78613281 C-301.90073242 120.11097656 -302.57587891 120.43582031 -303.27148438 120.77050781 C-321.95823326 129.39915959 -343.0725261 130.29746012 -362.53808594 123.47363281 C-372.18965265 119.73557345 -380.98685196 114.27719561 -388.17089844 106.76660156 C-389.50068664 105.27966933 -389.50068664 105.27966933 -391.72558594 105.03613281 C-398.25598464 106.05197261 -403.28382611 109.49007129 -407.53808594 114.47363281 Z M-172.53808594 270.47363281 C-173.4121953 272.00408034 -174.26158818 273.54865876 -175.10058594 275.09863281 C-178.31358432 280.55685898 -182.31121856 285.13401539 -188.52246094 287.10253906 C-195.57058433 288.40015868 -200.90954311 287.55079454 -207.23730469 284.10644531 C-210.90473497 281.50375285 -213.19375029 278.25941809 -215.53808594 274.47363281 C-216.52808594 272.98863281 -216.52808594 272.98863281 -217.53808594 271.47363281 C-225.76550759 272.03459338 -234.13908273 275.25058008 -240.53808594 280.47363281 C-240.04308594 282.17519531 -240.04308594 282.17519531 -239.53808594 283.91113281 C-237.70424299 291.37843576 -237.70882237 297.6073671 -241.53808594 304.47363281 C-245.54910785 309.24349671 -249.67116959 312.19997262 -255.97558594 312.80175781 C-257.15121094 312.77597656 -258.32683594 312.75019531 -259.53808594 312.72363281 C-260.71371094 312.70816406 -261.88933594 312.69269531 -263.10058594 312.67675781 C-266.31542123 312.48679027 -269.37625007 312.07129691 -272.53808594 311.47363281 C-273.67085862 313.65740047 -274.79431383 315.84520409 -275.91308594 318.03613281 C-276.23019531 318.64521484 -276.54730469 319.25429688 -276.87402344 319.88183594 C-278.97119968 324.01065167 -280.3941253 327.98445394 -281.53808594 332.47363281 C-280.08359193 333.47920892 -278.6243615 334.47793716 -277.16308594 335.47363281 C-276.35097656 336.03050781 -275.53886719 336.58738281 -274.70214844 337.16113281 C-272.67490407 338.64649126 -272.67490407 338.64649126 -270.53808594 338.47363281 C-270.26996094 339.03050781 -270.00183594 339.58738281 -269.72558594 340.16113281 C-268.59393418 342.51563027 -268.59393418 342.51563027 -266.97558594 344.59863281 C-264.12982082 350.29016305 -263.87306693 356.22242307 -265.72558594 362.28613281 C-268.74713499 369.92729463 -273.41040549 372.8945625 -280.53808594 376.47363281 C-279.14048689 380.01882165 -279.14048689 380.01882165 -277.53808594 383.47363281 C-265.32808594 383.47363281 -253.11808594 383.47363281 -240.53808594 383.47363281 C-241.52808594 380.50363281 -242.51808594 377.53363281 -243.53808594 374.47363281 C-247.82496518 360.03058999 -247.06403552 344.18404072 -240.14746094 330.77832031 C-232.27085149 316.89061419 -221.77200977 309.30536226 -206.53808594 304.47363281 C-193.69458939 301.12963786 -179.16208486 302.93113534 -167.54199219 309.05175781 C-154.40902575 316.96361277 -146.78476265 327.75182022 -142.53808594 342.47363281 C-139.5206276 357.1988295 -142.04278217 369.7353734 -147.53808594 383.47363281 C-135.65808594 383.47363281 -123.77808594 383.47363281 -111.53808594 383.47363281 C-111.20808594 381.49363281 -110.87808594 379.51363281 -110.53808594 377.47363281 C-111.11816406 377.13332031 -111.69824219 376.79300781 -112.29589844 376.44238281 C-118.79542686 372.40967211 -124.0598742 367.90826802 -126.53808594 360.47363281 C-127.27737935 353.65031819 -126.7039224 348.06279674 -122.53808594 342.47363281 C-118.92983368 338.72489532 -115.28201823 335.65499454 -110.53808594 333.47363281 C-111.09080417 328.22955005 -112.31586443 323.99214967 -114.41308594 319.09863281 C-114.79787109 318.15697266 -114.79787109 318.15697266 -115.19042969 317.19628906 C-116.02998699 315.16965342 -116.02998699 315.16965342 -117.53808594 312.47363281 C-120.86268016 311.36543474 -121.3267765 311.63712039 -124.53808594 312.47363281 C-132.47781167 313.07009004 -139.99486034 313.56280828 -146.53808594 308.47363281 C-150.22489942 304.68979792 -152.34188272 300.91453382 -152.76855469 295.60644531 C-152.6904079 290.13617014 -152.51768035 284.86140207 -151.53808594 279.47363281 C-155.83227158 276.38656848 -159.80054639 274.45141826 -164.85058594 272.72363281 C-166.08421875 272.29566406 -167.31785156 271.86769531 -168.58886719 271.42675781 C-171.18010807 270.42237977 -171.18010807 270.42237977 -172.53808594 270.47363281 Z M-222.88574219 333.17675781 C-229.03777781 341.72852365 -231.62068072 350.95893096 -230.53808594 361.47363281 C-228.74570553 370.1198315 -225.82724437 377.18447438 -219.53808594 383.47363281 C-217.98633967 383.62417139 -216.42793971 383.70688608 -214.86987305 383.76171875 C-213.87471176 383.79714783 -212.87955048 383.8325769 -211.85423279 383.86907959 C-207.27400915 383.99292743 -202.69391042 384.0837127 -198.11254883 384.15332031 C-195.69992182 384.19996303 -193.28760891 384.26811245 -190.8762207 384.35839844 C-177.28347854 385.68938637 -177.28347854 385.68938637 -165.20263672 381.09912109 C-163.12451074 378.26582527 -161.77614214 375.74879307 -160.53808594 372.47363281 C-159.87658303 371.26246486 -159.21141247 370.05326772 -158.53808594 368.84863281 C-155.64343084 359.67276534 -156.4295463 347.66216831 -160.20996094 338.90332031 C-165.47005084 329.28044996 -171.61674741 323.60213108 -181.97558594 320.16113281 C-197.59654642 315.75155882 -212.51651117 320.53859485 -222.88574219 333.17675781 Z M-425.53808594 400.47363281 C-424.9442088 406.92676035 -424.9442088 406.92676035 -422.97167969 412.43847656 C-422.49758667 413.41397461 -422.49758667 413.41397461 -422.01391602 414.40917969 C-421.67126709 415.06982422 -421.32861816 415.73046875 -420.97558594 416.41113281 C-420.61553467 417.10916016 -420.2554834 417.8071875 -419.88452148 418.52636719 C-413.40189073 430.68041656 -403.69712418 438.86368554 -390.53808594 443.41113281 C-385.36889224 444.93564111 -380.51548053 445.59928975 -375.11826324 445.60785389 C-373.81353514 445.61231173 -372.50880704 445.61676958 -371.16454172 445.62136251 C-369.71829636 445.62127322 -368.272051 445.62108338 -366.82580566 445.62080383 C-365.28807911 445.62410417 -363.75035343 445.6278301 -362.21262884 445.63194531 C-357.98483365 445.64195418 -353.75705265 445.64568032 -349.52924728 445.64833462 C-344.97007393 445.652241 -340.41091179 445.66181914 -335.85174561 445.67054749 C-324.8399541 445.69030287 -313.82816169 445.70037711 -302.8163569 445.70927528 C-297.62884731 445.71365985 -292.44133874 445.71902624 -287.25382996 445.72426414 C-270.00600649 445.74127579 -252.75818366 445.75576942 -235.51035309 445.76301289 C-231.03522236 445.76492274 -226.56009164 445.76684307 -222.08496094 445.76879883 C-220.97270856 445.76928257 -219.86045617 445.76976631 -218.71449918 445.77026471 C-200.70135835 445.77856298 -182.68828397 445.80389677 -164.67517215 445.83637951 C-146.17551674 445.86946723 -127.67589508 445.88746321 -109.17620993 445.89065713 C-98.7917732 445.89282067 -88.40743337 445.90154661 -78.02302551 445.9271183 C-69.1781634 445.94884871 -60.33342172 445.9568642 -51.48853594 445.94715152 C-46.97855307 445.94261357 -42.46881857 445.94446358 -37.95886993 445.96391296 C-33.82316949 445.98159373 -29.6878977 445.9805074 -25.55219239 445.96501567 C-24.06288232 445.96264702 -22.57354218 445.9669243 -21.08427793 445.97884432 C-3.5881138 446.11011188 10.23441931 441.07889563 23.06738281 429.09472656 C30.14218254 421.35053305 36.46191406 411.2157065 36.46191406 400.47363281 C-115.99808594 400.47363281 -268.45808594 400.47363281 -425.53808594 400.47363281 Z " fill="#000000" transform="translate(450.5380859375,35.5263671875)"/>
<path d="M0 0 C3.07113187 1.9047919 5.46573524 4.44163764 8 7 C9.20633891 8.1947099 10.41343427 9.38865625 11.62109375 10.58203125 C15.10177752 14.03414519 18.55542051 17.51187948 22 21 C25.56035495 19.50465092 27.66199744 17.47279984 30.265625 14.6484375 C31.07386719 13.79765625 31.88210937 12.946875 32.71484375 12.0703125 C34.4015513 10.27704869 36.07615708 8.47232288 37.73828125 6.65625 C43.80407406 0.33090663 43.80407406 0.33090663 47.3046875 -0.63769531 C50.54512917 -0.70103122 52.7242739 -0.16543566 55.5 1.5 C57.14804669 4.24674448 57.77039347 6.40149169 57.70898438 9.61523438 C56.0515167 15.19035293 50.65856846 19.12318818 46.5 23 C45.4864633 23.97337098 44.47472289 24.94861605 43.46484375 25.92578125 C40.99360343 28.30287909 38.50568683 30.65932801 36 33 C37.47971211 36.44893844 39.42359532 38.64482454 42.09765625 41.2578125 C42.89880859 42.04800781 43.69996094 42.83820313 44.52539062 43.65234375 C45.78125977 44.87630859 45.78125977 44.87630859 47.0625 46.125 C48.72222622 47.75038706 50.37988747 49.37788627 52.03515625 51.0078125 C52.7712915 51.72598145 53.50742676 52.44415039 54.26586914 53.18408203 C57.18534259 56.2412471 57.41271378 58.80451357 57.3359375 63.01953125 C57 65 57 65 55 67.5625 C51.86778509 69.06335298 49.80422183 69.44333417 46.3671875 68.93383789 C40.85065999 66.75760875 36.98910396 61.68028198 33 57.4375 C32.02639333 56.42873981 31.05114589 55.42156048 30.07421875 54.41601562 C27.6995583 51.95906496 25.3427831 49.48730131 23 47 C19.22833554 50.12523228 15.65415855 53.27817649 12.28125 56.83203125 C11.34732422 57.81139648 11.34732422 57.81139648 10.39453125 58.81054688 C9.12172618 60.15552131 7.85879025 61.50989824 6.60546875 62.87304688 C3.46306455 66.13581231 1.6688626 67.8158904 -2.7890625 69.04296875 C-6 69 -6 69 -8.875 67.5 C-11.75003468 64.11760626 -12.29682394 62.45235908 -12 58 C-10.1858637 54.86125625 -7.57885528 52.52051013 -5 50 C-3.72889393 48.72031234 -2.45951584 47.4389071 -1.19140625 46.15625 C2.51750398 42.41554911 6.25175732 38.7012541 10 35 C5.25229585 29.31294947 0.18414422 24.12957113 -5.140625 18.98632812 C-5.73875 18.39916016 -6.336875 17.81199219 -6.953125 17.20703125 C-7.49098633 16.6860083 -8.02884766 16.16498535 -8.58300781 15.62817383 C-11.29594524 12.51091337 -12.02143045 10.61076789 -11.875 6.4375 C-11 3 -11 3 -9.375 1.0625 C-5.84306842 -0.51757465 -3.85071526 -0.64178588 0 0 Z " fill="#000000" transform="translate(92,55)"/>
<path d="M0 0 C1.4236084 -0.01702469 1.4236084 -0.01702469 2.87597656 -0.03439331 C4.42757225 -0.02999741 4.42757225 -0.02999741 6.01051331 -0.0255127 C7.65257248 -0.03821701 7.65257248 -0.03821701 9.32780457 -0.05117798 C12.95075561 -0.07459981 16.57328326 -0.07556888 20.19630432 -0.07434082 C22.71209891 -0.0814391 25.22789187 -0.08913761 27.74368286 -0.09741211 C33.01869547 -0.11086874 38.29359878 -0.11260113 43.56861877 -0.10656738 C49.66161279 -0.09992615 55.7540015 -0.12279477 61.84687275 -0.15988111 C67.71380235 -0.19429329 73.58049385 -0.20091379 79.44751167 -0.1967926 C81.94142014 -0.19848782 84.4353363 -0.2081687 86.92918205 -0.22593689 C90.41511602 -0.24804016 93.8995849 -0.23846695 97.38551331 -0.2208252 C98.4178862 -0.23408844 99.45025909 -0.24735168 100.51391602 -0.26101685 C105.22838372 -0.20550264 107.52444037 -0.14926755 111.40737915 2.71020508 C113.84230153 6.23293344 113.94963387 8.1965446 113.26271057 12.39440918 C111.91175842 14.57591248 111.91175842 14.57591248 109.26271057 16.39440918 C105.61961853 17.00887498 102.00260709 16.95067115 98.31544495 16.92785645 C97.1996254 16.93647202 96.08380585 16.94508759 94.93417358 16.95396423 C91.24136744 16.97668958 87.54931607 16.96987315 83.85646057 16.96081543 C81.29342929 16.96604786 78.73039995 16.97232293 76.16737366 16.979599 C70.79393951 16.99001526 65.42079451 16.98575211 60.04737854 16.9708252 C53.83733189 16.95389722 47.6279878 16.96974737 41.41801786 17.00204808 C35.44105302 17.03195807 29.46444611 17.03393034 23.48739624 17.02454948 C20.94522182 17.0237279 18.40303299 17.03063066 15.86090088 17.04532051 C12.31006787 17.06269334 8.76074764 17.04828237 5.2099762 17.0255127 C4.15530655 17.0372049 3.1006369 17.04889709 2.01400757 17.0609436 C-5.10222902 16.96785529 -5.10222902 16.96785529 -8.40196228 13.98826599 C-9.76592099 11.33879271 -10.19236393 10.17050916 -9.73728943 7.26940918 C-9.65478943 6.60683105 -9.57228943 5.94425293 -9.48728943 5.26159668 C-7.77051971 0.98755541 -4.28516103 0.01941169 0 0 Z " fill="#000000" transform="translate(203.73728942871094,450.6055908203125)"/>
<path d="M0 0 C1.9375 1.625 1.9375 1.625 3 4 C3.38930567 9.78867125 2.27946363 14.64660237 0.75268555 20.16064453 C0.51366516 21.05096375 0.27464478 21.94128296 0.02838135 22.85858154 C-0.76004207 25.78578617 -1.56124723 28.70931034 -2.36328125 31.6328125 C-2.91715384 33.67334233 -3.47046478 35.71402468 -4.02323914 37.75485229 C-5.18193303 42.0248248 -6.3468735 46.29302909 -7.51635742 50.56005859 C-9.01388874 56.02569161 -10.49662556 61.49520678 -11.97482014 66.96609688 C-13.11446651 71.1781007 -14.26150132 75.38806449 -15.4108181 79.59743881 C-15.96039647 81.6134509 -16.50777837 83.63006309 -17.05291176 85.64728165 C-17.81601348 88.46632995 -18.58892126 91.28250781 -19.36450195 94.09814453 C-19.58748459 94.92943878 -19.81046722 95.76073303 -20.04020691 96.61721802 C-21.20656417 100.80924741 -22.40261515 104.43171361 -25 108 C-28.09173752 109.54586876 -30.59429552 109.29359521 -34 109 C-36.64662097 107.11950615 -37.74015711 105.84884196 -38.68980408 102.74658203 C-39.06969337 99.38291079 -38.47904547 97.0074393 -37.58813477 93.7421875 C-37.25350723 92.49477783 -36.9188797 91.24736816 -36.57411194 89.9621582 C-36.19677291 88.59970854 -35.81919745 87.23732435 -35.44140625 85.875 C-35.05464101 84.44971671 -34.6688309 83.02417394 -34.28392029 81.59838867 C-33.2625939 77.82569552 -32.22808891 74.0567375 -31.19085693 70.28839111 C-30.1693334 66.56814032 -29.16036481 62.84449315 -28.15039062 59.12109375 C-26.36683569 52.55043825 -24.56309078 45.98551818 -22.7537632 39.42192078 C-21.57896737 35.14695229 -20.43096149 30.86587405 -19.30668354 26.5773468 C-18.59723823 23.87447279 -17.87804257 21.17424014 -17.15785027 18.47421265 C-16.66560578 16.61265402 -16.18740843 14.74739877 -15.70960999 12.88208008 C-15.410905 11.76728271 -15.11220001 10.65248535 -14.80444336 9.50390625 C-14.42442421 8.04706421 -14.42442421 8.04706421 -14.03672791 6.56079102 C-11.20846676 -0.42521341 -6.92013888 -1.57827729 0 0 Z " fill="#000000" transform="translate(283,163)"/>
<path d="M0 0 C2.375 1.0625 2.375 1.0625 4 3 C5.02229029 6.68024506 5.53603195 8.90914551 3.82299805 12.39526367 C1.75137568 15.35523943 -0.53561496 17.76063675 -3.10546875 20.30078125 C-3.5895369 20.7820195 -4.07360504 21.26325775 -4.57234192 21.75907898 C-6.10606177 23.28168301 -7.64661658 24.79714943 -9.1875 26.3125 C-10.234185 27.34914408 -11.2804138 28.38624898 -12.32617188 29.42382812 C-14.87886 31.95457019 -17.43772272 34.47896279 -20 37 C-16.68678741 41.02509833 -13.27879708 44.76874542 -9.51171875 48.375 C-8.72345703 49.13296875 -7.93519531 49.8909375 -7.12304688 50.671875 C-5.489114 52.23374187 -3.84571128 53.78575736 -2.19335938 55.328125 C4.42347848 61.74313021 4.42347848 61.74313021 5.125 65.8828125 C4.98055094 69.48501089 4.22849227 71.19375048 2 74 C-1.26047629 75.63023814 -3.37801035 75.4673535 -7 75 C-14.12977335 70.187533 -20.16722959 62.98592959 -26.22973633 56.90063477 C-27.95474713 55.17019863 -29.68512428 53.4452551 -31.41601562 51.72070312 C-32.51594633 50.62011271 -33.61556738 49.51921272 -34.71484375 48.41796875 C-35.48972389 47.64612495 -35.48972389 47.64612495 -36.28025818 46.85868835 C-39.31306563 43.80573876 -40.81246548 42.17209073 -41.5 37.875 C-40.33454422 28.84271768 -29.20977227 21.05577485 -22.90063477 14.77026367 C-21.17019863 13.04525287 -19.4452551 11.31487572 -17.72070312 9.58398438 C-16.62011271 8.48405367 -15.51921272 7.38443262 -14.41796875 6.28515625 C-13.90340622 5.76856949 -13.38884369 5.25198273 -12.85868835 4.71974182 C-8.44436691 0.3345443 -6.30660896 -0.43493855 0 0 Z " fill="#000000" transform="translate(230,179)"/>
<path d="M0 0 C3.0685826 1.93104551 5.45763347 4.40583333 7.96484375 7.0078125 C8.68362198 7.72605194 9.40240021 8.44429138 10.14295959 9.18429565 C11.65416914 10.70318885 13.15559849 12.23186784 14.64770508 13.76953125 C16.93173406 16.11906869 19.24853445 18.43197926 21.57226562 20.7421875 C23.03852785 22.22451827 24.50279118 23.7088295 25.96484375 25.1953125 C26.65642075 25.8861795 27.34799774 26.57704651 28.06053162 27.28884888 C30.86154153 30.20213026 32.76294353 32.3322165 34.12719727 36.17529297 C33.83413684 42.68337184 28.58442071 46.69553563 24.21484375 51.015625 C23.55795059 51.67205994 22.90105743 52.32849487 22.22425842 53.00482178 C20.84059435 54.3854746 19.45451048 55.76370611 18.06616211 57.13964844 C15.93608007 59.25140771 13.81417512 61.37112637 11.69335938 63.4921875 C10.34682633 64.83380739 8.99983689 66.17496941 7.65234375 67.515625 C7.01586411 68.15099182 6.37938446 68.78635864 5.72361755 69.440979 C4.83743492 70.31759186 4.83743492 70.31759186 3.93334961 71.21191406 C3.41389267 71.7275592 2.89443573 72.24320435 2.35923767 72.7744751 C0.05301188 74.85382972 -1.19369228 75.01793447 -4.375 75.3125 C-8 75 -8 75 -10.4375 73.5 C-12.1740366 70.72154144 -12.88553784 68.5457536 -12.6796875 65.24609375 C-11.32214105 60.75994887 -7.87208729 57.77644181 -4.59375 54.56298828 C-2.73100223 52.73619428 -0.89700227 50.88249296 0.9375 49.02734375 C4.60370288 45.32986149 8.29439278 41.65795847 12 38 C10.43650535 34.14849151 8.00759028 31.89036802 4.9921875 29.078125 C3.9952111 28.1259233 2.99914477 27.17276799 2.00390625 26.21875 C0.44125172 24.73022705 -1.12627335 23.24882195 -2.71044922 21.78320312 C-11.50792584 13.61353023 -11.50792584 13.61353023 -12.73144531 9.6015625 C-12.79416947 6.39241964 -12.14452111 4.24086851 -10.5 1.5 C-7.00052847 -0.59968292 -3.91821389 -0.86432395 0 0 Z " fill="#000000" transform="translate(309,179)"/>
<path d="M0 0 C2.5 1.5625 2.5 1.5625 4 4 C4.6875 7.25 4.6875 7.25 4 11 C-0.71931545 17.65925297 -7.17307987 23.32402625 -12.9375 29.0625 C-13.79279297 29.92166016 -14.64808594 30.78082031 -15.52929688 31.66601562 C-19.99319606 36.1231049 -24.53049625 40.40772321 -29.31811523 44.5144043 C-31.38426013 46.33941398 -33.22038693 48.32640832 -35.0625 50.375 C-37.7228799 53.05099857 -38.95519566 53.98455023 -42.625 55.25 C-50.21627544 54.6876833 -55.61984753 47.77805438 -60.75 42.6875 C-61.51699219 41.95337891 -62.28398437 41.21925781 -63.07421875 40.46289062 C-67.40316325 36.17579005 -70.13827687 33.11594645 -71 27 C-70.04605689 23.09750546 -69.40589817 22.27059878 -66 20 C-62.44616676 19.37285296 -60.08478738 19.27965003 -57.01171875 21.3203125 C-54.91478043 23.13630181 -52.94995934 25.02718958 -51 27 C-50.319375 27.66773437 -49.63875 28.33546875 -48.9375 29.0234375 C-47.27433393 30.66648463 -45.63356519 32.32767813 -44 34 C-39.26499662 30.0525084 -34.80555436 25.93352637 -30.48046875 21.54296875 C-29.6035009 20.66032097 -29.6035009 20.66032097 -28.70881653 19.75984192 C-26.86589685 17.9048356 -25.02630031 16.04658919 -23.1875 14.1875 C-20.74634981 11.71979839 -18.30192892 9.25540483 -15.85546875 6.79296875 C-15.29715866 6.22636032 -14.73884857 5.65975189 -14.16362 5.07597351 C-9.59048373 0.47366452 -6.56938539 -0.90880826 0 0 Z " fill="#000000" transform="translate(430,62)"/>
<path d="M0 0 C0.7361554 0.00247742 1.47231079 0.00495483 2.23077393 0.00750732 C3.00653275 0.00239639 3.78229156 -0.00271454 4.58155823 -0.00798035 C7.15359142 -0.02191445 9.7253578 -0.02091671 12.29742432 -0.01861572 C14.08099976 -0.02250064 15.86457428 -0.02683488 17.64814758 -0.03160095 C21.38991289 -0.03907143 25.13158385 -0.03876597 28.87335205 -0.0335083 C33.67328341 -0.02771337 38.47282895 -0.04464113 43.2726965 -0.06785297 C46.95724249 -0.08257053 50.64169515 -0.08346471 54.32626534 -0.08034325 C56.09613369 -0.08085748 57.86600714 -0.08611436 59.63584709 -0.09615517 C62.10915206 -0.10846382 64.58170022 -0.10176183 67.05499268 -0.09014893 C67.78912384 -0.09779266 68.523255 -0.1054364 69.27963257 -0.11331177 C74.21632107 -0.06196357 74.21632107 -0.06196357 76.63117981 1.62965393 C78.31231346 4.21056336 78.58726122 6.21402211 78.70758057 9.28216553 C76.48405115 14.89393023 76.48405115 14.89393023 73.70758057 16.28216553 C71.25739517 16.39574724 68.83494986 16.44996099 66.3838501 16.45916748 C65.62920471 16.46573868 64.87455933 16.47230988 64.0970459 16.4790802 C61.59482733 16.49882295 59.09266876 16.51047709 56.59039307 16.52044678 C55.73667995 16.5245223 54.88296684 16.52859783 54.00338364 16.53279686 C49.48600251 16.55366043 44.96865181 16.56796165 40.45123291 16.57733154 C35.7813718 16.58840479 31.11198605 16.62281412 26.44229317 16.66250324 C22.85465599 16.68862387 19.26713294 16.69701924 15.67940903 16.70061302 C13.95779073 16.70548975 12.23617788 16.71713457 10.51465225 16.73565102 C8.10608258 16.75994955 5.69875431 16.75909516 3.2901001 16.75213623 C2.57826569 16.76494629 1.86643127 16.77775635 1.13302612 16.79095459 C-2.25795382 16.75521942 -3.99758 16.51092616 -6.7116394 14.40513611 C-8.57660579 11.90050631 -9.14034254 10.39974179 -9.29241943 7.28216553 C-7.58390955 1.63094052 -5.94693855 0.06274017 0 0 Z " fill="#000000" transform="translate(368.29241943359375,196.71783447265625)"/>
<path d="M0 0 C1.13240616 -0.01051392 1.13240616 -0.01051392 2.28768921 -0.02124023 C4.77940823 -0.03882385 7.26998849 -0.02719698 9.76171875 -0.01367188 C11.49520078 -0.0163667 13.22868134 -0.02024905 14.9621582 -0.02526855 C18.59373376 -0.03116407 22.22491555 -0.02259914 25.85644531 -0.00390625 C30.5106592 0.01888359 35.16395046 0.00576076 39.81813049 -0.01819611 C43.39724678 -0.03265279 46.97614445 -0.02804875 50.55526733 -0.01768494 C52.27127186 -0.01501728 53.98729626 -0.01828881 55.70327759 -0.02760315 C58.10219871 -0.03776695 60.4996275 -0.02227194 62.8984375 0 C63.60712982 -0.00809692 64.31582214 -0.01619385 65.04598999 -0.02453613 C68.44980126 0.0339872 70.17155275 0.30041268 72.88793945 2.42492676 C74.58242608 4.69612177 74.9929219 5.72057663 74.94921875 8.51757812 C74.9646875 9.50757813 74.9646875 9.50757813 74.98046875 10.51757812 C74.18649244 13.50666541 72.87584334 14.61344905 70.44921875 16.51757812 C67.82869344 16.91771257 65.6251048 17.07551952 63.00610352 17.05102539 C61.89073715 17.06394875 61.89073715 17.06394875 60.75283813 17.07713318 C58.29841149 17.09980884 55.84512525 17.09305162 53.390625 17.08398438 C51.68195761 17.08921959 49.97329312 17.0954957 48.26463318 17.10276794 C44.68434039 17.11317528 41.10444495 17.10860655 37.52416992 17.09399414 C32.93941097 17.07681248 28.35590596 17.10029123 23.77128696 17.13548374 C20.24272887 17.15746201 16.71447057 17.15601519 13.1858654 17.14771843 C11.4957943 17.146899 9.80570117 17.15376084 8.11569405 17.16848946 C5.75025908 17.18594291 3.38707363 17.17138939 1.02172852 17.14868164 C-0.02189095 17.16621994 -0.02189095 17.16621994 -1.08659363 17.18411255 C-4.87509827 17.1102437 -6.47755257 16.57532083 -9.48890686 14.20079041 C-11.55078125 11.51757812 -11.55078125 11.51757812 -12.11328125 7.95507812 C-10.93367509 0.74637381 -6.56863925 -0.07504776 0 0 Z " fill="#000000" transform="translate(78.55078125,196.482421875)"/>
<path d="M0 0 C1.05026367 -0.00241196 2.10052734 -0.00482391 3.18261719 -0.00730896 C5.40173114 -0.00633006 7.62086938 0.0070736 9.83984375 0.03198242 C13.23782248 0.06628332 16.63320028 0.05264446 20.03125 0.03320312 C22.18751108 0.04010164 24.34376544 0.04977406 26.5 0.0625 C27.51674805 0.05754013 28.53349609 0.05258026 29.58105469 0.04747009 C36.57618537 0.16435044 36.57618537 0.16435044 39.890625 2.44946289 C41.91443706 5.69417738 41.77572861 7.8830899 41.25 11.62890625 C39.890625 14.31005859 39.890625 14.31005859 37.25 16.62890625 C33.67373523 17.39159173 30.14529854 17.32925565 26.5 17.29296875 C24.92460449 17.3001442 24.92460449 17.3001442 23.31738281 17.3074646 C21.09829205 17.31086495 18.87915128 17.30165318 16.66015625 17.28076172 C13.26188549 17.25399985 9.86691792 17.28050682 6.46875 17.3125 C4.3124927 17.30919593 2.15623746 17.30278975 0 17.29296875 C-1.01674805 17.3030899 -2.03349609 17.31321106 -3.08105469 17.32363892 C-10.10163844 17.20689277 -10.10163844 17.20689277 -13.390625 14.27490234 C-15.06465337 11.0164398 -15.35285038 9.24600851 -14.75 5.62890625 C-11.41356587 -0.87078862 -6.52376109 -0.08506866 0 0 Z " fill="#000000" transform="translate(81.75,237.37109375)"/>
<path d="M0 0 C0.86792679 -0.00960754 1.73585358 -0.01921509 2.63008118 -0.02911377 C3.57481796 -0.03336365 4.51955475 -0.03761353 5.49291992 -0.04199219 C6.45864426 -0.04769226 7.42436859 -0.05339233 8.4193573 -0.05926514 C10.46803689 -0.06873192 12.51673183 -0.07525575 14.56542969 -0.07910156 C17.69973409 -0.08879404 20.83337935 -0.11979631 23.9675293 -0.15136719 C25.9551556 -0.15789822 27.94278661 -0.1631483 29.93041992 -0.16699219 C30.86908401 -0.17933899 31.80774811 -0.19168579 32.77485657 -0.20440674 C39.25587766 -0.18223834 39.25587766 -0.18223834 42.47607422 1.50585938 C44.65375086 4.01813565 44.84626049 5.86509561 44.91088867 9.16113281 C42.68735926 14.77289752 42.68735926 14.77289752 39.91088867 16.16113281 C38.54350781 16.26515964 37.1713238 16.30973784 35.80004883 16.32226562 C34.95221832 16.33187317 34.10438782 16.34148071 33.23086548 16.35137939 C32.31316376 16.35562927 31.39546204 16.35987915 30.44995117 16.36425781 C29.03678116 16.37280792 29.03678116 16.37280792 27.59506226 16.38153076 C25.59943772 16.39098664 23.60379752 16.39751707 21.6081543 16.40136719 C18.55514273 16.41107161 15.50280461 16.44208896 12.44995117 16.47363281 C10.51245518 16.48016291 8.57495436 16.48541336 6.63745117 16.48925781 C5.72379791 16.50160461 4.81014465 16.51395142 3.86880493 16.52667236 C-2.42054061 16.50457404 -2.42054061 16.50457404 -5.63842773 14.8515625 C-7.99453667 12.10607306 -8.02803229 9.70371712 -8.08911133 6.16113281 C-5.89247959 1.56817554 -4.98463273 0.04435291 0 0 Z " fill="#000000" transform="translate(402.089111328125,237.8388671875)"/>
</svg>
